<mxfile host="app.diagrams.net" modified="2024-02-15T08:38:48.463Z" agent="Mozilla/5.0 (Windows NT 10.0; Win64; x64) AppleWebKit/537.36 (KHTML, like Gecko) Chrome/120.0.0.0 YaBrowser/24.1.0.0 Safari/537.36" etag="kk5bWbI9o0NTJEoC2bIW" version="23.1.4" type="device">
  <diagram name="Page-1" id="e7e014a7-5840-1c2e-5031-d8a46d1fe8dd">
    <mxGraphModel dx="1386" dy="791" grid="1" gridSize="10" guides="1" tooltips="1" connect="1" arrows="1" fold="1" page="1" pageScale="1" pageWidth="1169" pageHeight="826" background="none" math="0" shadow="0">
      <root>
        <mxCell id="0" />
        <mxCell id="1" parent="0" />
        <mxCell id="UfC7LisgrTAivx7unYqm-62" value="" style="group" vertex="1" connectable="0" parent="1">
          <mxGeometry x="230" y="60" width="60" height="100" as="geometry" />
        </mxCell>
        <mxCell id="UfC7LisgrTAivx7unYqm-42" value="" style="endArrow=none;html=1;rounded=0;" edge="1" parent="UfC7LisgrTAivx7unYqm-62">
          <mxGeometry width="50" height="50" relative="1" as="geometry">
            <mxPoint x="10" y="100" as="sourcePoint" />
            <mxPoint x="30" y="70" as="targetPoint" />
          </mxGeometry>
        </mxCell>
        <mxCell id="UfC7LisgrTAivx7unYqm-43" value="" style="endArrow=none;html=1;rounded=0;" edge="1" parent="UfC7LisgrTAivx7unYqm-62">
          <mxGeometry width="50" height="50" relative="1" as="geometry">
            <mxPoint x="30" y="70" as="sourcePoint" />
            <mxPoint x="50" y="100" as="targetPoint" />
          </mxGeometry>
        </mxCell>
        <mxCell id="UfC7LisgrTAivx7unYqm-45" value="" style="endArrow=none;html=1;rounded=0;" edge="1" parent="UfC7LisgrTAivx7unYqm-62">
          <mxGeometry width="50" height="50" relative="1" as="geometry">
            <mxPoint x="30" y="70" as="sourcePoint" />
            <mxPoint x="30" y="40" as="targetPoint" />
          </mxGeometry>
        </mxCell>
        <mxCell id="UfC7LisgrTAivx7unYqm-46" value="" style="ellipse;whiteSpace=wrap;html=1;" vertex="1" parent="UfC7LisgrTAivx7unYqm-62">
          <mxGeometry x="10" width="38.4" height="40" as="geometry" />
        </mxCell>
        <mxCell id="UfC7LisgrTAivx7unYqm-47" value="" style="endArrow=none;html=1;rounded=0;" edge="1" parent="UfC7LisgrTAivx7unYqm-62">
          <mxGeometry width="50" height="50" relative="1" as="geometry">
            <mxPoint y="70" as="sourcePoint" />
            <mxPoint x="30" y="40" as="targetPoint" />
          </mxGeometry>
        </mxCell>
        <mxCell id="UfC7LisgrTAivx7unYqm-49" value="" style="endArrow=none;html=1;rounded=0;" edge="1" parent="UfC7LisgrTAivx7unYqm-62">
          <mxGeometry width="50" height="50" relative="1" as="geometry">
            <mxPoint x="30" y="40" as="sourcePoint" />
            <mxPoint x="60" y="70" as="targetPoint" />
          </mxGeometry>
        </mxCell>
        <mxCell id="UfC7LisgrTAivx7unYqm-63" value="" style="group" vertex="1" connectable="0" parent="1">
          <mxGeometry x="230" y="440" width="60" height="100" as="geometry" />
        </mxCell>
        <mxCell id="UfC7LisgrTAivx7unYqm-64" value="" style="endArrow=none;html=1;rounded=0;" edge="1" parent="UfC7LisgrTAivx7unYqm-63">
          <mxGeometry width="50" height="50" relative="1" as="geometry">
            <mxPoint x="10" y="100" as="sourcePoint" />
            <mxPoint x="30" y="70" as="targetPoint" />
          </mxGeometry>
        </mxCell>
        <mxCell id="UfC7LisgrTAivx7unYqm-65" value="" style="endArrow=none;html=1;rounded=0;" edge="1" parent="UfC7LisgrTAivx7unYqm-63">
          <mxGeometry width="50" height="50" relative="1" as="geometry">
            <mxPoint x="30" y="70" as="sourcePoint" />
            <mxPoint x="50" y="100" as="targetPoint" />
          </mxGeometry>
        </mxCell>
        <mxCell id="UfC7LisgrTAivx7unYqm-66" value="" style="endArrow=none;html=1;rounded=0;" edge="1" parent="UfC7LisgrTAivx7unYqm-63">
          <mxGeometry width="50" height="50" relative="1" as="geometry">
            <mxPoint x="30" y="70" as="sourcePoint" />
            <mxPoint x="30" y="40" as="targetPoint" />
          </mxGeometry>
        </mxCell>
        <mxCell id="UfC7LisgrTAivx7unYqm-67" value="" style="ellipse;whiteSpace=wrap;html=1;" vertex="1" parent="UfC7LisgrTAivx7unYqm-63">
          <mxGeometry x="10" width="38.4" height="40" as="geometry" />
        </mxCell>
        <mxCell id="UfC7LisgrTAivx7unYqm-68" value="" style="endArrow=none;html=1;rounded=0;" edge="1" parent="UfC7LisgrTAivx7unYqm-63">
          <mxGeometry width="50" height="50" relative="1" as="geometry">
            <mxPoint y="70" as="sourcePoint" />
            <mxPoint x="30" y="40" as="targetPoint" />
          </mxGeometry>
        </mxCell>
        <mxCell id="UfC7LisgrTAivx7unYqm-69" value="" style="endArrow=none;html=1;rounded=0;" edge="1" parent="UfC7LisgrTAivx7unYqm-63">
          <mxGeometry width="50" height="50" relative="1" as="geometry">
            <mxPoint x="30" y="40" as="sourcePoint" />
            <mxPoint x="60" y="70" as="targetPoint" />
          </mxGeometry>
        </mxCell>
        <mxCell id="UfC7LisgrTAivx7unYqm-71" value="" style="group" vertex="1" connectable="0" parent="1">
          <mxGeometry x="230" y="250" width="60" height="100" as="geometry" />
        </mxCell>
        <mxCell id="UfC7LisgrTAivx7unYqm-72" value="" style="endArrow=none;html=1;rounded=0;" edge="1" parent="UfC7LisgrTAivx7unYqm-71">
          <mxGeometry width="50" height="50" relative="1" as="geometry">
            <mxPoint x="10" y="100" as="sourcePoint" />
            <mxPoint x="30" y="70" as="targetPoint" />
          </mxGeometry>
        </mxCell>
        <mxCell id="UfC7LisgrTAivx7unYqm-73" value="" style="endArrow=none;html=1;rounded=0;" edge="1" parent="UfC7LisgrTAivx7unYqm-71">
          <mxGeometry width="50" height="50" relative="1" as="geometry">
            <mxPoint x="30" y="70" as="sourcePoint" />
            <mxPoint x="50" y="100" as="targetPoint" />
          </mxGeometry>
        </mxCell>
        <mxCell id="UfC7LisgrTAivx7unYqm-74" value="" style="endArrow=none;html=1;rounded=0;" edge="1" parent="UfC7LisgrTAivx7unYqm-71">
          <mxGeometry width="50" height="50" relative="1" as="geometry">
            <mxPoint x="30" y="70" as="sourcePoint" />
            <mxPoint x="30" y="40" as="targetPoint" />
          </mxGeometry>
        </mxCell>
        <mxCell id="UfC7LisgrTAivx7unYqm-75" value="" style="ellipse;whiteSpace=wrap;html=1;" vertex="1" parent="UfC7LisgrTAivx7unYqm-71">
          <mxGeometry x="10" width="38.4" height="40" as="geometry" />
        </mxCell>
        <mxCell id="UfC7LisgrTAivx7unYqm-76" value="" style="endArrow=none;html=1;rounded=0;" edge="1" parent="UfC7LisgrTAivx7unYqm-71">
          <mxGeometry width="50" height="50" relative="1" as="geometry">
            <mxPoint y="70" as="sourcePoint" />
            <mxPoint x="30" y="40" as="targetPoint" />
          </mxGeometry>
        </mxCell>
        <mxCell id="UfC7LisgrTAivx7unYqm-77" value="" style="endArrow=none;html=1;rounded=0;" edge="1" parent="UfC7LisgrTAivx7unYqm-71">
          <mxGeometry width="50" height="50" relative="1" as="geometry">
            <mxPoint x="30" y="40" as="sourcePoint" />
            <mxPoint x="60" y="70" as="targetPoint" />
          </mxGeometry>
        </mxCell>
        <mxCell id="UfC7LisgrTAivx7unYqm-83" value="Авторизация" style="swimlane;whiteSpace=wrap;html=1;" vertex="1" parent="1">
          <mxGeometry x="460" y="60" width="1120" height="580" as="geometry" />
        </mxCell>
        <mxCell id="UfC7LisgrTAivx7unYqm-89" value="Вход на сайт" style="rounded=0;whiteSpace=wrap;html=1;" vertex="1" parent="UfC7LisgrTAivx7unYqm-83">
          <mxGeometry x="40" y="240" width="110" height="40" as="geometry" />
        </mxCell>
        <mxCell id="UfC7LisgrTAivx7unYqm-91" value="Регистрация" style="rounded=0;whiteSpace=wrap;html=1;" vertex="1" parent="UfC7LisgrTAivx7unYqm-83">
          <mxGeometry x="390" y="390" width="110" height="40" as="geometry" />
        </mxCell>
        <mxCell id="UfC7LisgrTAivx7unYqm-92" value="Вход" style="rounded=0;whiteSpace=wrap;html=1;" vertex="1" parent="UfC7LisgrTAivx7unYqm-83">
          <mxGeometry x="390" y="110" width="110" height="40" as="geometry" />
        </mxCell>
        <mxCell id="UfC7LisgrTAivx7unYqm-96" value="" style="endArrow=classic;html=1;rounded=0;exitX=1;exitY=0.5;exitDx=0;exitDy=0;" edge="1" parent="UfC7LisgrTAivx7unYqm-83" source="UfC7LisgrTAivx7unYqm-92">
          <mxGeometry width="50" height="50" relative="1" as="geometry">
            <mxPoint x="560" y="190" as="sourcePoint" />
            <mxPoint x="600" y="210" as="targetPoint" />
          </mxGeometry>
        </mxCell>
        <mxCell id="UfC7LisgrTAivx7unYqm-98" value="Забыли пароль?" style="rounded=0;whiteSpace=wrap;html=1;" vertex="1" parent="UfC7LisgrTAivx7unYqm-83">
          <mxGeometry x="550" y="210" width="110" height="40" as="geometry" />
        </mxCell>
        <mxCell id="UfC7LisgrTAivx7unYqm-99" value="Ввести логин" style="rounded=0;whiteSpace=wrap;html=1;" vertex="1" parent="UfC7LisgrTAivx7unYqm-83">
          <mxGeometry x="630" y="340" width="110" height="40" as="geometry" />
        </mxCell>
        <mxCell id="UfC7LisgrTAivx7unYqm-100" value="Ввести пароль" style="rounded=0;whiteSpace=wrap;html=1;" vertex="1" parent="UfC7LisgrTAivx7unYqm-83">
          <mxGeometry x="630" y="420" width="110" height="40" as="geometry" />
        </mxCell>
        <mxCell id="UfC7LisgrTAivx7unYqm-101" value="" style="endArrow=classic;html=1;rounded=0;entryX=0;entryY=0.25;entryDx=0;entryDy=0;" edge="1" parent="UfC7LisgrTAivx7unYqm-83" target="UfC7LisgrTAivx7unYqm-99">
          <mxGeometry width="50" height="50" relative="1" as="geometry">
            <mxPoint x="500" y="390" as="sourcePoint" />
            <mxPoint x="550" y="340" as="targetPoint" />
          </mxGeometry>
        </mxCell>
        <mxCell id="UfC7LisgrTAivx7unYqm-102" value="" style="endArrow=classic;html=1;rounded=0;entryX=0;entryY=0.75;entryDx=0;entryDy=0;" edge="1" parent="UfC7LisgrTAivx7unYqm-83" target="UfC7LisgrTAivx7unYqm-100">
          <mxGeometry width="50" height="50" relative="1" as="geometry">
            <mxPoint x="500" y="430" as="sourcePoint" />
            <mxPoint x="550" y="380" as="targetPoint" />
          </mxGeometry>
        </mxCell>
        <mxCell id="UfC7LisgrTAivx7unYqm-103" value="Подтверждение пароля" style="rounded=0;whiteSpace=wrap;html=1;" vertex="1" parent="UfC7LisgrTAivx7unYqm-83">
          <mxGeometry x="869" y="380" width="110" height="40" as="geometry" />
        </mxCell>
        <mxCell id="UfC7LisgrTAivx7unYqm-104" value="" style="endArrow=classic;html=1;rounded=0;entryX=0;entryY=0.5;entryDx=0;entryDy=0;" edge="1" parent="UfC7LisgrTAivx7unYqm-83" target="UfC7LisgrTAivx7unYqm-103">
          <mxGeometry width="50" height="50" relative="1" as="geometry">
            <mxPoint x="740" y="435" as="sourcePoint" />
            <mxPoint x="790" y="385" as="targetPoint" />
          </mxGeometry>
        </mxCell>
        <mxCell id="UfC7LisgrTAivx7unYqm-105" value="" style="endArrow=classic;html=1;rounded=0;" edge="1" parent="UfC7LisgrTAivx7unYqm-83" target="UfC7LisgrTAivx7unYqm-103">
          <mxGeometry width="50" height="50" relative="1" as="geometry">
            <mxPoint x="740" y="353" as="sourcePoint" />
            <mxPoint x="790" y="303" as="targetPoint" />
          </mxGeometry>
        </mxCell>
        <mxCell id="UfC7LisgrTAivx7unYqm-108" value="" style="endArrow=classic;html=1;rounded=0;entryX=0;entryY=1;entryDx=0;entryDy=0;" edge="1" parent="UfC7LisgrTAivx7unYqm-83" target="UfC7LisgrTAivx7unYqm-92">
          <mxGeometry width="50" height="50" relative="1" as="geometry">
            <mxPoint x="150" y="240" as="sourcePoint" />
            <mxPoint x="200" y="190" as="targetPoint" />
          </mxGeometry>
        </mxCell>
        <mxCell id="UfC7LisgrTAivx7unYqm-109" value="" style="endArrow=classic;html=1;rounded=0;entryX=0.182;entryY=-0.025;entryDx=0;entryDy=0;entryPerimeter=0;" edge="1" parent="UfC7LisgrTAivx7unYqm-83" target="UfC7LisgrTAivx7unYqm-91">
          <mxGeometry width="50" height="50" relative="1" as="geometry">
            <mxPoint x="150" y="280" as="sourcePoint" />
            <mxPoint x="200" y="230" as="targetPoint" />
          </mxGeometry>
        </mxCell>
        <mxCell id="UfC7LisgrTAivx7unYqm-113" value="Расширение" style="text;html=1;align=center;verticalAlign=middle;whiteSpace=wrap;rounded=0;" vertex="1" parent="UfC7LisgrTAivx7unYqm-83">
          <mxGeometry x="550" y="130" width="60" height="30" as="geometry" />
        </mxCell>
        <mxCell id="UfC7LisgrTAivx7unYqm-117" value="Ассоциация" style="text;html=1;align=center;verticalAlign=middle;whiteSpace=wrap;rounded=0;" vertex="1" parent="UfC7LisgrTAivx7unYqm-83">
          <mxGeometry x="210" y="160" width="60" height="30" as="geometry" />
        </mxCell>
        <mxCell id="UfC7LisgrTAivx7unYqm-119" value="Включение" style="text;html=1;align=center;verticalAlign=middle;whiteSpace=wrap;rounded=0;" vertex="1" parent="UfC7LisgrTAivx7unYqm-83">
          <mxGeometry x="255" y="290" width="60" height="30" as="geometry" />
        </mxCell>
        <mxCell id="UfC7LisgrTAivx7unYqm-120" value="Ассоциация" style="text;html=1;align=center;verticalAlign=middle;whiteSpace=wrap;rounded=0;" vertex="1" parent="UfC7LisgrTAivx7unYqm-83">
          <mxGeometry x="530" y="323" width="60" height="30" as="geometry" />
        </mxCell>
        <mxCell id="UfC7LisgrTAivx7unYqm-121" value="Ассоциация" style="text;html=1;align=center;verticalAlign=middle;whiteSpace=wrap;rounded=0;" vertex="1" parent="UfC7LisgrTAivx7unYqm-83">
          <mxGeometry x="530" y="450" width="60" height="30" as="geometry" />
        </mxCell>
        <mxCell id="UfC7LisgrTAivx7unYqm-122" value="Ассоциация" style="text;html=1;align=center;verticalAlign=middle;whiteSpace=wrap;rounded=0;" vertex="1" parent="UfC7LisgrTAivx7unYqm-83">
          <mxGeometry x="780" y="330" width="60" height="30" as="geometry" />
        </mxCell>
        <mxCell id="UfC7LisgrTAivx7unYqm-125" value="Ассоциация" style="text;html=1;align=center;verticalAlign=middle;whiteSpace=wrap;rounded=0;" vertex="1" parent="UfC7LisgrTAivx7unYqm-83">
          <mxGeometry x="790" y="425" width="60" height="30" as="geometry" />
        </mxCell>
        <mxCell id="UfC7LisgrTAivx7unYqm-126" value="Анализ данных пользоватей" style="rounded=0;whiteSpace=wrap;html=1;" vertex="1" parent="UfC7LisgrTAivx7unYqm-83">
          <mxGeometry x="40" y="390" width="110" height="40" as="geometry" />
        </mxCell>
        <mxCell id="UfC7LisgrTAivx7unYqm-127" value="" style="endArrow=classic;html=1;rounded=0;entryX=0.5;entryY=1;entryDx=0;entryDy=0;" edge="1" parent="UfC7LisgrTAivx7unYqm-83" target="UfC7LisgrTAivx7unYqm-89">
          <mxGeometry width="50" height="50" relative="1" as="geometry">
            <mxPoint x="90" y="390" as="sourcePoint" />
            <mxPoint x="140" y="340" as="targetPoint" />
          </mxGeometry>
        </mxCell>
        <mxCell id="UfC7LisgrTAivx7unYqm-153" value="Ассоциация" style="text;html=1;align=center;verticalAlign=middle;whiteSpace=wrap;rounded=0;" vertex="1" parent="UfC7LisgrTAivx7unYqm-83">
          <mxGeometry x="110" y="323" width="60" height="30" as="geometry" />
        </mxCell>
        <mxCell id="UfC7LisgrTAivx7unYqm-155" value="Восстановление пароля" style="rounded=0;whiteSpace=wrap;html=1;" vertex="1" parent="UfC7LisgrTAivx7unYqm-83">
          <mxGeometry x="780" y="210" width="110" height="40" as="geometry" />
        </mxCell>
        <mxCell id="UfC7LisgrTAivx7unYqm-156" value="" style="endArrow=classic;html=1;rounded=0;entryX=0;entryY=0.5;entryDx=0;entryDy=0;" edge="1" parent="UfC7LisgrTAivx7unYqm-83" target="UfC7LisgrTAivx7unYqm-155">
          <mxGeometry width="50" height="50" relative="1" as="geometry">
            <mxPoint x="660" y="230" as="sourcePoint" />
            <mxPoint x="710" y="180" as="targetPoint" />
          </mxGeometry>
        </mxCell>
        <mxCell id="UfC7LisgrTAivx7unYqm-157" value="Включение" style="text;html=1;align=center;verticalAlign=middle;whiteSpace=wrap;rounded=0;" vertex="1" parent="UfC7LisgrTAivx7unYqm-83">
          <mxGeometry x="690" y="180" width="60" height="30" as="geometry" />
        </mxCell>
        <mxCell id="UfC7LisgrTAivx7unYqm-84" value="Администратор" style="text;html=1;align=center;verticalAlign=middle;whiteSpace=wrap;rounded=0;" vertex="1" parent="1">
          <mxGeometry x="210" y="393" width="100" height="40" as="geometry" />
        </mxCell>
        <mxCell id="UfC7LisgrTAivx7unYqm-85" value="Студент" style="text;html=1;align=center;verticalAlign=middle;whiteSpace=wrap;rounded=0;" vertex="1" parent="1">
          <mxGeometry x="230" y="20" width="60" height="30" as="geometry" />
        </mxCell>
        <mxCell id="UfC7LisgrTAivx7unYqm-86" value="Преподаватель" style="text;html=1;align=center;verticalAlign=middle;whiteSpace=wrap;rounded=0;" vertex="1" parent="1">
          <mxGeometry x="210" y="200" width="100" height="50" as="geometry" />
        </mxCell>
        <mxCell id="UfC7LisgrTAivx7unYqm-93" value="" style="endArrow=classic;html=1;rounded=0;entryX=0;entryY=0.25;entryDx=0;entryDy=0;" edge="1" parent="1" target="UfC7LisgrTAivx7unYqm-89">
          <mxGeometry width="50" height="50" relative="1" as="geometry">
            <mxPoint x="300" y="310" as="sourcePoint" />
            <mxPoint x="350" y="260" as="targetPoint" />
          </mxGeometry>
        </mxCell>
        <mxCell id="UfC7LisgrTAivx7unYqm-94" value="" style="endArrow=classic;html=1;rounded=0;entryX=0.114;entryY=-0.1;entryDx=0;entryDy=0;entryPerimeter=0;" edge="1" parent="1" target="UfC7LisgrTAivx7unYqm-89">
          <mxGeometry width="50" height="50" relative="1" as="geometry">
            <mxPoint x="290" y="110" as="sourcePoint" />
            <mxPoint x="390" y="140" as="targetPoint" />
          </mxGeometry>
        </mxCell>
        <mxCell id="UfC7LisgrTAivx7unYqm-111" value="" style="endArrow=classic;html=1;rounded=0;entryX=0;entryY=0.25;entryDx=0;entryDy=0;" edge="1" parent="1">
          <mxGeometry width="50" height="50" relative="1" as="geometry">
            <mxPoint x="300" y="483" as="sourcePoint" />
            <mxPoint x="500" y="470" as="targetPoint" />
          </mxGeometry>
        </mxCell>
        <mxCell id="UfC7LisgrTAivx7unYqm-114" value="Ассоциация" style="text;html=1;align=center;verticalAlign=middle;whiteSpace=wrap;rounded=0;" vertex="1" parent="1">
          <mxGeometry x="350" y="120" width="60" height="30" as="geometry" />
        </mxCell>
        <mxCell id="UfC7LisgrTAivx7unYqm-115" value="Ассоциация" style="text;html=1;align=center;verticalAlign=middle;whiteSpace=wrap;rounded=0;" vertex="1" parent="1">
          <mxGeometry x="330" y="270" width="60" height="30" as="geometry" />
        </mxCell>
        <mxCell id="UfC7LisgrTAivx7unYqm-116" value="Расширение" style="text;html=1;align=center;verticalAlign=middle;whiteSpace=wrap;rounded=0;" vertex="1" parent="1">
          <mxGeometry x="330" y="440" width="60" height="30" as="geometry" />
        </mxCell>
      </root>
    </mxGraphModel>
  </diagram>
</mxfile>
